<?xml version="1.0" encoding="utf-8"?>
<!-- Generator: Adobe Illustrator 19.2.1, SVG Export Plug-In . SVG Version: 6.00 Build 0)  -->
<svg version="1.1" id="Layer_1" xmlns="http://www.w3.org/2000/svg" xmlns:xlink="http://www.w3.org/1999/xlink" x="0px" y="0px"
	 viewBox="0 0 32 40" style="enable-background:new 0 0 32 40;" xml:space="preserve">
<style type="text/css">
	.st0{display:none;}
	.st1{display:inline;}
	.st2{fill:#EB3300;}
</style>
<g class="st0">
	<rect x="-373.4" y="-186.7" class="st1" width="473.3" height="236"/>
</g>
<g class="st0">
	<g class="st1">
		<path d="M7,25h18V7H7V25z M8,8h16v16H8V8z"/>
		<path d="M9.5,22.5h13.1V9.5H9.5V22.5z M10.5,10.5h11.1v11.1H10.5V10.5z"/>
		<path d="M10.9,16l5.1,5.1l5.1-5.1L16,10.9L10.9,16z M16,19.7L12.3,16l3.7-3.7l3.7,3.7L16,19.7z"/>
		<path d="M13.6,16l2.4,2.4l2.4-2.4L16,13.6L13.6,16z M16,17l-1-1l1-1l1,1L16,17z"/>
		<path d="M16,0C7.2,0,0,7.2,0,16s7.2,16,16,16s16-7.2,16-16S24.8,0,16,0z M16,31C7.7,31,1,24.3,1,16S7.7,1,16,1s15,6.7,15,15
			S24.3,31,16,31z"/>
	</g>
</g>
<g class="st0">
	<g class="st1">
		<path d="M7,25h18V7H7V25z M9,9h14v14H9V9z"/>
		<path d="M10.4,21.6h11.2V10.4H10.4V21.6z M12.4,12.4h7.2v7.2h-7.2V12.4z"/>
		<rect x="14.1" y="14.1" transform="matrix(0.7071 -0.7071 0.7071 0.7071 -6.6277 15.9994)" width="3.7" height="3.7"/>
		<path d="M16,0C7.2,0,0,7.2,0,16s7.2,16,16,16s16-7.2,16-16S24.8,0,16,0z M16,30C8.3,30,2,23.7,2,16S8.3,2,16,2s14,6.3,14,14
			S23.7,30,16,30z"/>
	</g>
</g>
<g class="st0">
	<g class="st1">
		<path d="M24,8H8v16h16V8z M22,22H10V10h12V22z"/>
		<path d="M16,0C7.2,0,0,7.2,0,16s7.2,16,16,16s16-7.2,16-16S24.8,0,16,0z M25,25H7V7h18V25z"/>
		<rect x="14.5" y="14.5" transform="matrix(0.7071 -0.7071 0.7071 0.7071 -6.6277 15.9994)" width="2.9" height="2.9"/>
		<path d="M21,11H11v10h10V11z M16,19.5L12.5,16l3.5-3.5l3.5,3.5L16,19.5z"/>
	</g>
</g>
<g>
	<g>
		<path class="st2" d="M7,25h18V7H7V25z M7.5,7.5h17v17h-17V7.5z"/>
		<path class="st2" d="M9.5,22.5h13.1V9.5H9.5V22.5z M10,10H22V22H10V10z"/>
		<path class="st2" d="M10.9,16l5.1,5.1l5.1-5.1L16,10.9L10.9,16z M16,20.4L11.6,16l4.4-4.4l4.4,4.4L16,20.4z"/>
		<path class="st2" d="M13.6,16l2.4,2.4l2.4-2.4L16,13.6L13.6,16z M16,17.7L14.3,16l1.7-1.7l1.7,1.7L16,17.7z"/>
		<path class="st2" d="M16,0C7.2,0,0,7.2,0,16s7.2,16,16,16s16-7.2,16-16S24.8,0,16,0z M16,31.5c-8.5,0-15.5-7-15.5-15.5
			S7.5,0.5,16,0.5s15.5,7,15.5,15.5S24.5,31.5,16,31.5z"/>
	</g>
</g>
</svg>
