<?xml version="1.0" encoding="utf-8"?>
<!-- Generator: Adobe Illustrator 19.2.1, SVG Export Plug-In . SVG Version: 6.00 Build 0)  -->
<svg version="1.1" id="Layer_1" xmlns="http://www.w3.org/2000/svg" xmlns:xlink="http://www.w3.org/1999/xlink" x="0px" y="0px"
	 viewBox="0 0 32 32" style="enable-background:new 0 0 32 32;" xml:space="preserve">
<style type="text/css">
	.st0{fill:#010101;}
</style>
<path class="st0" d="M15.7,15.7h-8v8.6h8.6v-8h8V7.7h-8.6V15.7z M15.7,23.7H8.3v-7.4h7.4V23.7z M16.3,8.3h7.4v7.4h-7.4V8.3z"/>
<path class="st0" d="M14.3,17.7H9.7v4.6h4.6V17.7z M13.7,21.7h-3.4v-3.4h3.4V21.7z"/>
<path class="st0" d="M17.7,14.3h4.6V9.7h-4.6V14.3z M18.3,10.3h3.4v3.4h-3.4V10.3z"/>
<path class="st0" d="M26.3,23.7h-2.2l-3.8-3.8v-2.2h-2.7v2.7h2.2l3.8,3.8v2.2h2v4h4.6v-4.6h-4V23.7z M19.7,19.7h-1.4v-1.4h1.4V19.7z
	 M24.3,25.7v-1.4h1.4v1.4H24.3z M29.7,26.3v3.4h-3.4v-3.4H29.7z"/>
<path class="st0" d="M5.7,8.3h2.2l3.8,3.8v2.2h2.7v-2.7h-2.2L8.3,7.9V5.7h-2v-4H1.7v4.6h4V8.3L5.7,8.3z M12.3,12.3h1.4v1.4h-1.4
	V12.3z M7.7,6.3v1.3H6.3V6.3L7.7,6.3L7.7,6.3z M2.3,5.7V2.3h3.4v3.4H2.3z"/>
<path class="st0" d="M28.3,7.7h-2.7v2.7h2.7V7.7z M27.7,9.7h-1.4V8.3h1.4V9.7z"/>
<path class="st0" d="M24.3,3.7h-2.7v2.7h2.7V3.7z M23.7,5.7h-1.4V4.3h1.4V5.7z"/>
<path class="st0" d="M3.7,24.3h2.7v-2.7H3.7C3.7,21.7,3.7,24.3,3.7,24.3z M4.3,22.3h1.4v1.3H4.3C4.3,23.7,4.3,22.3,4.3,22.3z"/>
<path class="st0" d="M7.7,28.3h2.7v-2.7H7.7V28.3z M8.3,26.3h1.4v1.4H8.3V26.3z"/>
<path class="st0" d="M14.3,4.3H20V3.7h-5.7v-2H9.7v4.6h4.6V4.3z M13.7,5.7h-3.4V2.3h3.4V5.7z"/>
<path class="st0" d="M17.7,27.7H12v0.6h5.7v2h4.6v-4.6h-4.6V27.7z M18.3,26.3h3.4v3.4h-3.4V26.3z"/>
<path class="st0" d="M1.7,14.3h2V20h0.6v-5.7h2V9.7H1.7V14.3z M2.3,10.3h3.4v3.4H2.3V10.3z"/>
<path class="st0" d="M28.3,12h-0.6v5.7h-2v4.6h4.6v-4.6h-2L28.3,12C28.3,12,28.3,12,28.3,12z M29.7,21.7h-3.4v-3.4h3.4V21.7z"/>
<polygon class="st0" points="27.3,4.7 27.3,0 26.7,0 26.7,4.7 26.7,4.9 26.7,5.3 32,5.3 32,4.7 "/>
<polygon class="st0" points="0,27.3 4.7,27.3 4.7,32 5.3,32 5.3,27.3 5.3,27 5.3,26.7 0,26.7 "/>
</svg>
