<?xml version="1.0" encoding="utf-8"?>
<!-- Generator: Adobe Illustrator 19.2.1, SVG Export Plug-In . SVG Version: 6.00 Build 0)  -->
<svg version="1.1" id="Layer_1" xmlns="http://www.w3.org/2000/svg" xmlns:xlink="http://www.w3.org/1999/xlink" x="0px" y="0px"
	 viewBox="0 0 32 32" style="enable-background:new 0 0 32 32;" xml:space="preserve">
<style type="text/css">
	.st0{fill:#E93824;}
</style>
<g>
	<g>
		<path class="st0" d="M7,25h18V7H7V25z M7.5,7.5h17v17h-17V7.5z"/>
		<path class="st0" d="M9.5,22.5h13.1v-13H9.5V22.5z M10,10h12v12H10V10z"/>
		<path class="st0" d="M10.9,16l5.1,5.1l5.1-5.1L16,10.9L10.9,16z M16,20.4L11.6,16l4.4-4.4l4.4,4.4L16,20.4z"/>
		<path class="st0" d="M13.6,16l2.4,2.4l2.4-2.4L16,13.6L13.6,16z M16,17.7L14.3,16l1.7-1.7l1.7,1.7L16,17.7z"/>
		<path class="st0" d="M16,0C7.2,0,0,7.2,0,16s7.2,16,16,16s16-7.2,16-16S24.8,0,16,0z M16,31.5c-8.5,0-15.5-7-15.5-15.5
			S7.5,0.5,16,0.5s15.5,7,15.5,15.5S24.5,31.5,16,31.5z"/>
	</g>
</g>
</svg>
