<svg xmlns="http://www.w3.org/2000/svg" xmlns:xlink="http://www.w3.org/1999/xlink" version="1.1" x="0px" y="0px" viewBox="0 0 32 40" enable-background="new 0 0 32 32" xml:space="preserve"><g display="none"><rect x="-247.333" y="-18.682" display="inline" fill="#000000" width="473.333" height="236"/></g><g display="none"><g display="inline"><path d="M7,25h18V7H7V25z M8,8h16v16H8V8z"/><path d="M10.05,21.95H21.95V10.05H10.05V21.95z M11.05,11.05h9.899v9.899H11.05V11.05z"/><path d="M12.49,13.984v4.032L16,20.032l3.51-2.016v-4.032L16,11.968L12.49,13.984z M18.51,17.437L16,18.879l-2.51-1.442v-2.874    L16,13.121l2.51,1.442V17.437z"/><path d="M16,0C7.163,0,0,7.163,0,16s7.163,16,16,16s16-7.163,16-16S24.837,0,16,0z M16,31C7.729,31,1,24.271,1,16    C1,7.729,7.729,1,16,1c8.271,0,15,6.729,15,15C31,24.271,24.271,31,16,31z"/></g></g><g display="none"><g display="inline"><path d="M7,25h18V7H7V25z M9,9h14v14H9V9z"/><path d="M10.05,21.95H21.95V10.05H10.05V21.95z M12.05,12.05h7.899v7.899H12.05V12.05z"/><polygon points="13.302,14.45 13.302,17.55 16,19.099 18.698,17.55 18.698,14.45 16,12.901   "/><path d="M16,0C7.163,0,0,7.163,0,16s7.163,16,16,16s16-7.163,16-16S24.837,0,16,0z M16,30C8.28,30,2,23.72,2,16    C2,8.28,8.28,2,16,2c7.72,0,14,6.28,14,14C30,23.72,23.72,30,16,30z"/></g></g><g display="none"><g display="inline"><polygon points="13.49,14.563 13.49,17.437 16,18.879 18.51,17.437 18.51,14.563 16,13.121   "/><path d="M24,8H8v16h16V8z M21.95,21.95H10.05V10.05H21.95V21.95z"/><path d="M20.95,11.05H11.05v9.899h9.899V11.05z M19.51,18.016L16,20.032l-3.51-2.016v-4.032L16,11.968l3.51,2.016V18.016z"/><path d="M16,0C7.163,0,0,7.163,0,16s7.163,16,16,16s16-7.163,16-16S24.837,0,16,0z M25,25H7V7h18V25z"/></g></g><g><g><path d="M7,25h18V7H7V25z M7.5,7.5h17v17h-17V7.5z"/><path d="M10.05,21.95H21.95V10.05H10.05V21.95z M10.55,10.55H21.45V21.45H10.55V10.55z"/><path d="M12.49,13.984v4.032L16,20.032l3.51-2.016v-4.032L16,11.968L12.49,13.984z M19.01,17.727L16,19.455l-3.01-1.729v-3.453    L16,12.545l3.01,1.729V17.727z"/><path d="M16,0C7.163,0,0,7.163,0,16s7.163,16,16,16s16-7.163,16-16S24.837,0,16,0z M16,31.5C7.453,31.5,0.5,24.547,0.5,16    C0.5,7.453,7.453,0.5,16,0.5c8.547,0,15.5,6.953,15.5,15.5C31.5,24.547,24.547,31.5,16,31.5z"/></g></g><text x="0" y="47" fill="#000000" font-size="5px" font-weight="bold" font-family="'Helvetica Neue', Helvetica, Arial-Unicode, Arial, Sans-serif">Created by Alfredo Hernandez</text><text x="0" y="52" fill="#000000" font-size="5px" font-weight="bold" font-family="'Helvetica Neue', Helvetica, Arial-Unicode, Arial, Sans-serif">from the Noun Project</text></svg>