<?xml version="1.0" encoding="utf-8"?>
<!-- Generator: Adobe Illustrator 19.2.1, SVG Export Plug-In . SVG Version: 6.00 Build 0)  -->
<svg version="1.1" id="Layer_1" xmlns="http://www.w3.org/2000/svg" xmlns:xlink="http://www.w3.org/1999/xlink" x="0px" y="0px"
	 viewBox="0 0 32 32" style="enable-background:new 0 0 32 32;" xml:space="preserve">
<style type="text/css">
	.st0{clip-path:url(#SVGID_2_);fill:#010101;}
</style>
<g>
	<defs>
		<rect id="SVGID_1_" x="-1.5" y="-1.5" width="35" height="35"/>
	</defs>
	<clipPath id="SVGID_2_">
		<use xlink:href="#SVGID_1_"  style="overflow:visible;"/>
	</clipPath>
	<path class="st0" d="M5.4,0.4H0.4v5.1h5.1V0.4z M4.7,4.7H1.1V1.1h3.7V4.7z"/>
	<path class="st0" d="M31.7,9.1h-5.1v5.1h5.1V9.1z M31,13.5h-3.7V9.8H31V13.5z"/>
	<path class="st0" d="M8.9,5.4h5.5l-2.7-5.5L8.9,5.4z M10,4.7l1.6-3.3l1.6,3.3H10z"/>
	<path class="st0" d="M20.4,5.4c1.4,0,2.6-1.2,2.6-2.6s-1.2-2.6-2.6-2.6c-1.4,0-2.6,1.2-2.6,2.6S19,5.4,20.4,5.4z M20.4,1.1
		c1,0,1.9,0.8,1.9,1.9s-0.8,1.9-1.9,1.9s-1.9-0.8-1.9-1.9S19.4,1.1,20.4,1.1z"/>
	<polygon class="st0" points="27.2,5.3 29.1,3.4 31,5.3 31.6,4.8 29.6,2.9 31.6,0.9 31,0.4 29.1,2.4 27.2,0.4 26.7,0.9 28.6,2.9 
		26.7,4.8 	"/>
	<path class="st0" d="M0.1,14.2h5.5L2.9,8.6L0.1,14.2z M1.3,13.5l1.6-3.3l1.6,3.3H1.3z"/>
	<path class="st0" d="M29.1,17.4l-2.8,5.5h5.5L29.1,17.4z M29.1,19l1.6,3.3h-3.3L29.1,19z"/>
	<path class="st0" d="M11.6,9.1c-1.4,0-2.6,1.2-2.6,2.6s1.2,2.6,2.6,2.6s2.6-1.2,2.6-2.6S13,9.1,11.6,9.1z M11.6,13.5
		c-1,0-1.9-0.8-1.9-1.9s0.8-1.9,1.9-1.9s1.9,0.8,1.9,1.9S12.6,13.5,11.6,13.5z"/>
	<polygon class="st0" points="22.3,9.2 20.4,11.1 18.5,9.2 17.9,9.7 19.9,11.6 17.9,13.6 18.5,14.1 20.4,12.1 22.3,14.1 22.8,13.6 
		20.9,11.6 22.8,9.7 	"/>
	<path class="st0" d="M22.9,17.9h-5.1v5.1h5.1V17.9z M22.2,22.2h-3.7v-3.7h3.7V22.2z"/>
	<path class="st0" d="M2.9,17.9c-1.4,0-2.6,1.2-2.6,2.6S1.5,23,2.9,23s2.6-1.2,2.6-2.6S4.3,17.9,2.9,17.9z M2.9,22.2
		c-1,0-1.9-0.8-1.9-1.9s0.8-1.9,1.9-1.9s1.9,0.8,1.9,1.9S3.9,22.2,2.9,22.2z"/>
	<path class="st0" d="M29.1,26.6c-1.4,0-2.6,1.2-2.6,2.6s1.2,2.6,2.6,2.6s2.6-1.2,2.6-2.6C31.7,27.8,30.5,26.6,29.1,26.6z M29.1,31
		c-1,0-1.9-0.8-1.9-1.9s0.8-1.9,1.9-1.9s1.9,0.8,1.9,1.9S30.1,31,29.1,31z"/>
	<polygon class="st0" points="9.7,22.8 11.6,20.9 13.6,22.8 14.1,22.3 12.1,20.4 14.1,18.5 13.6,17.9 11.6,19.9 9.7,17.9 9.2,18.5 
		11.1,20.4 9.2,22.3 	"/>
	<path class="st0" d="M17.6,31.7h5.5l-2.7-5.5L17.6,31.7z M18.8,31l1.6-3.3L22,31H18.8z"/>
	<path class="st0" d="M9.1,31.7h5.1v-5.1H9.1V31.7L9.1,31.7z M9.8,27.3h3.7V31H9.8V27.3z"/>
	<polygon class="st0" points="4.8,26.7 2.9,28.6 0.9,26.7 0.4,27.2 2.4,29.1 0.4,31 0.9,31.6 2.9,29.6 4.8,31.6 5.3,31 3.4,29.1 
		5.3,27.2 	"/>
</g>
</svg>
