<?xml version="1.0" encoding="utf-8"?>
<!-- Generator: Adobe Illustrator 19.2.1, SVG Export Plug-In . SVG Version: 6.00 Build 0)  -->
<svg version="1.1" id="Layer_1" xmlns="http://www.w3.org/2000/svg" xmlns:xlink="http://www.w3.org/1999/xlink" x="0px" y="0px"
	 viewBox="0 0 32 40" style="enable-background:new 0 0 32 40;" xml:space="preserve">
<style type="text/css">
	.st0{display:none;}
	.st1{display:inline;}
	.st2{fill:#EB3300;}
</style>
<g class="st0">
	<rect x="-247.3" y="-18.7" class="st1" width="473.3" height="236"/>
</g>
<g class="st0">
	<g class="st1">
		<path d="M7,25h18V7H7V25z M8,8h16v16H8V8z"/>
		<path d="M10.1,22H22V10.1H10.1V22z M11.1,11.1h9.9v9.9h-9.9V11.1z"/>
		<path d="M12.5,14v4l3.5,2l3.5-2v-4L16,12L12.5,14z M18.5,17.4L16,18.9l-2.5-1.4v-2.9l2.5-1.4l2.5,1.4V17.4z"/>
		<path d="M16,0C7.2,0,0,7.2,0,16s7.2,16,16,16s16-7.2,16-16S24.8,0,16,0z M16,31C7.7,31,1,24.3,1,16S7.7,1,16,1s15,6.7,15,15
			S24.3,31,16,31z"/>
	</g>
</g>
<g class="st0">
	<g class="st1">
		<path d="M7,25h18V7H7V25z M9,9h14v14H9V9z"/>
		<path d="M10.1,22H22V10.1H10.1V22z M12.1,12.1h7.9v7.9h-7.9V12.1z"/>
		<polygon points="13.3,14.4 13.3,17.5 16,19.1 18.7,17.5 18.7,14.4 16,12.9 		"/>
		<path d="M16,0C7.2,0,0,7.2,0,16s7.2,16,16,16s16-7.2,16-16S24.8,0,16,0z M16,30C8.3,30,2,23.7,2,16S8.3,2,16,2s14,6.3,14,14
			S23.7,30,16,30z"/>
	</g>
</g>
<g class="st0">
	<g class="st1">
		<polygon points="13.5,14.6 13.5,17.4 16,18.9 18.5,17.4 18.5,14.6 16,13.1 		"/>
		<path d="M24,8H8v16h16V8z M22,22H10.1V10.1H22V22z"/>
		<path d="M21,11.1h-9.9v9.9h9.9L21,11.1L21,11.1z M19.5,18L16,20l-3.5-2v-4l3.5-2l3.5,2V18z"/>
		<path d="M16,0C7.2,0,0,7.2,0,16s7.2,16,16,16s16-7.2,16-16S24.8,0,16,0z M25,25H7V7h18V25z"/>
	</g>
</g>
<g>
	<g>
		<path class="st2" d="M7,25h18V7H7V25z M7.5,7.5h17v17h-17V7.5z"/>
		<path class="st2" d="M10.1,22H22V10.1H10.1V22z M10.6,10.6h10.9v10.9H10.6V10.6z"/>
		<path class="st2" d="M12.5,14v4l3.5,2l3.5-2v-4L16,12L12.5,14z M19,17.7l-3,1.7l-3-1.7v-3.5l3-1.7l3,1.7V17.7z"/>
		<path class="st2" d="M16,0C7.2,0,0,7.2,0,16s7.2,16,16,16s16-7.2,16-16S24.8,0,16,0z M16,31.5c-8.5,0-15.5-7-15.5-15.5
			S7.5,0.5,16,0.5s15.5,7,15.5,15.5S24.5,31.5,16,31.5z"/>
	</g>
</g>
</svg>
