<?xml version="1.0" encoding="utf-8"?>
<!-- Generator: Adobe Illustrator 19.2.1, SVG Export Plug-In . SVG Version: 6.00 Build 0)  -->
<svg version="1.1" id="Layer_1" xmlns="http://www.w3.org/2000/svg" xmlns:xlink="http://www.w3.org/1999/xlink" x="0px" y="0px"
	 viewBox="0 0 100 100" style="enable-background:new 0 0 100 100;" xml:space="preserve">
<style type="text/css">
	.st0{fill:#E93725;}
</style>
<path class="st0" d="M49.7,26.5c0.2-0.2,0.4-0.5,0.6-0.8c0.2-0.2,0.5-0.4,0.6-0.7c0-0.1,0.1-0.1,0.1-0.2c0.5-0.6,1.1-1.1,1.6-1.7
	c0.4-0.5,0.9-0.9,1.3-1.4c0.4-0.5,0.9-1,1.3-1.5c1-1.3,2.3-2.3,3.4-3.5c1-1,2.1-1.7,3.2-2.5c0.5-0.1,0.9-0.5,1.5-0.4
	c0.3,0,0.5,0,0.8,0c0.3,0,0.5,0,0.8,0.1c0.3,0.1,0.5,0.3,0.7,0.4c1.3,0.7,2,1.9,2.6,3.1c0.2,0.4,0.3,0.9,0.4,1.3
	c0.2,1.7-0.6,3-1.4,4.3c-0.4,0.7-0.9,1.3-1.4,1.9c-0.6,0.7-1.2,1.4-1.8,2.1c-0.6,0.7-1.4,1.4-2,2.1c-1.2,1.4-2.6,2.6-3.9,4
	c0.9,0.5,1.8,1.2,2.7,1.7c0.9,0.6,1.9,1.2,2.9,1.8c0.9,0.6,2,1.1,3,1.6c0.7,0.4,1.4,0.7,2.1,1c0.9,0.4,1.7,0.8,2.6,1.1
	c0.6,0.2,1.1,0.5,1.7,0.6c0.7,0.1,1.3,0.4,2,0.5c0.8,0.1,1.5,0.4,2.3,0.4c0.1,0,0.1,0.1,0.2,0.1c0.2,0.1,0.4,0,0.5-0.2
	c0.5-0.7,0.9-1.4,1.4-2.2c0-0.1,0.1-0.1,0.2-0.1c0.3,0,0.6-0.1,0.9,0.1c0.1,0.1,0.3,0,0.5,0c1.1,0,2.2,0,3.3,0.2
	c0.6,0.1,1.2,0.1,1.8,0.1c0.4,0,0.7,0.2,1.1,0.2c0.4,0,0.8-0.1,1.1,0c0.6,0.2,1.1,0.1,1.7,0.1c0.4,0,0.8,0.1,1.1,0.1
	c0.4,0,0.8-0.1,1.1,0c0.5,0.2,1,0.1,1.5,0.1c0.8,0.1,1.7,0.2,2.5,0.1c0.2,0,0.4,0.1,0.6,0.1c0.1,0,0.2,0.2,0.2,0.3
	c0,0.7,0.4,1.4,0.5,2.1c0.1,0.6,0.3,1.3,0.4,1.9c0.1,0.2,0,0.5,0.1,0.7c0.2,0.2,0.1,0.4,0.1,0.7c0,0.2,0.1,0.3,0.1,0.5
	c0,0.2,0,0.3,0.1,0.5c0.2,0.3,0,0.7,0.2,1c0,0.8,0.3,1.5,0.3,2.3c0,0.4,0,0.8,0.1,1.2c0.1,0.4,0,0.8,0.1,1.1c0.2,0.6,0,1.3,0.1,1.9
	c0.3,1.5,0.1,3.1,0.1,4.7c0,1-0.2,1.9-0.1,2.9c-0.2,0.5,0,1.1-0.2,1.5c-0.2,0.5,0,1-0.2,1.5c-0.1,0.3-0.1,0.7-0.1,1.1
	c0,0.8-0.2,1.5-0.3,2.3c-0.1,0.8-0.3,1.5-0.4,2.3c-0.3,0.2,0,0.6-0.2,0.9c-0.1,0.2-0.1,0.6-0.2,0.8c-0.1,0.3-0.3,0.6-0.2,0.9
	c-0.3,0.8-0.4,1.7-0.7,2.6c-0.2,0.6-0.3,1.3-0.5,1.9c-0.2,0.7-0.4,1.4-0.6,2.1c0,0.2-0.1,0.3-0.3,0.3c-0.1,0-0.2,0-0.4,0
	c-5.4,0-10.8,0-16.2,0c-0.5,0-0.6-0.1-0.7-0.6c0-0.3,0-0.7-0.2-1c-0.2-0.3,0.1-0.7-0.3-0.9c0-0.3-0.1-0.6-0.1-0.9
	c-0.1-0.3,0-0.8-0.2-1c-0.2-0.3,0-0.7-0.2-1c-0.1-0.2-0.1-0.5-0.1-0.8c-0.1-0.3-0.2-0.2-0.3-0.2c-0.3,0-0.5,0.1-0.8,0.2
	c-0.7,0.2-1.4,0.4-2,0.5c-0.4,0.1-0.8,0.2-1.1,0.3c-0.4,0.1-0.8,0.1-1.2,0.3c-0.6-0.1-1.2,0.3-1.8,0.3c-0.3,0-0.6,0.2-0.9,0.2
	c-0.1,0-0.2,0.1-0.2,0.1c-0.3,0-0.7,0.1-1,0.1c-0.9,0.1-1.9,0.1-2.8,0.2c-0.3,0-0.6-0.1-0.9-0.1c-0.3,0-0.6,0.1-0.8,0
	c-0.7-0.2-1.5-0.1-2.2-0.4c-0.2-0.1-0.4,0-0.6,0c-0.1,0-0.3-0.1-0.4-0.1c-0.3-0.1-0.7,0-1-0.2c-0.3-0.2-0.7,0-1-0.3
	c-0.4,0.1-0.8-0.1-1.2-0.1c-0.2,0-0.5-0.1-0.7-0.1c-0.2,0-0.5,0.1-0.7-0.1c0,0-0.1,0-0.1,0c-0.4,0-0.8,0.1-1.2-0.1
	c-0.4-0.1-0.7,0-1.1-0.1c-0.4,0-0.8-0.1-1.2,0c-0.5,0.1-1.1,0-1.6,0.1c-0.7,0.1-1.3,0.1-2,0.3c-0.3,0.1-0.6,0-0.9,0.1
	c-0.3,0.1-0.6,0-0.9,0.1c-0.3,0.1-0.6,0-0.9,0.1c-0.7,0.2-1.5,0.3-2.2,0.5c-0.3,0.1-0.6,0.2-1,0.2c-0.3,0-0.5,0.1-0.7,0.1
	c-0.2,0.1-0.5,0-0.7,0.1c-0.2,0.1-0.5,0-0.9,0.1C39.9,77,39.4,77,38.9,77c-0.6,0.1-1.3,0.2-1.9,0.1c-0.6,0-1.3,0-1.9,0
	c-0.3,0-0.7-0.1-1-0.1c-0.3-0.1-0.6,0.1-0.9-0.1c0,0-0.2,0-0.3,0c-0.3,0-0.6,0.1-0.9-0.1c-0.2-0.1-0.6,0-0.9-0.1
	c-0.3-0.1-0.6,0-0.9-0.2c-0.3-0.1-0.6-0.1-0.9-0.2c-0.7-0.2-1.5-0.3-2.2-0.5c-0.2-0.1-0.5-0.1-0.7-0.1c-0.3-0.1-0.6,0-0.8-0.2
	c-0.2-0.2-0.5,0.1-0.7-0.2c-1-0.1-1.9-0.6-2.9-0.7c-0.5-0.3-1.1-0.4-1.6-0.6c-0.1,0-0.2-0.2-0.4,0c-0.7,0.8-1.6,1.6-2.3,2.5
	c-0.4,0.4-0.8,0.8-1.2,1.3c-0.9,1.1-1.8,2.1-2.8,3.1c-0.3,0.6-0.8,0.8-1.4,0.9c-0.2,0-0.3,0.1-0.5,0.2c-0.7,0.4-1.5,0.5-2.2,0.8
	c-1.2,0.4-2.4,0.8-3.6,1.2C5.4,84,4.7,84.2,4,84.4c-0.5,0.1-1,0.3-1.4,0.4c-0.5,0.2-0.9,0.2-1.4,0.4c-0.2,0.1-0.4,0.1-0.6-0.1
	c-0.1-0.2-0.1-0.4,0-0.6c0.3-0.5,0.5-1.1,0.7-1.6c0.5-1,0.9-2.1,1.4-3.1c0.2-0.6,0.5-1.1,0.8-1.6C4.2,76.6,5,75,5.9,73.3
	c0.3-0.6,0.6-1.1,1-1.6c0.5-0.7,1-1.4,1.4-2.1c0.1-0.2,0.2-0.3,0-0.5c-0.4-0.3-0.6-0.8-1.1-1C7,68,6.9,67.9,6.8,67.8
	C7,67.7,6.9,67.5,7,67.4c0.3-0.7,0.6-1.4,0.8-2.1c0.3-0.8,0.7-1.7,1-2.5c0.2-0.5,0.4-1,0.6-1.5c0.2-0.5,0.4-1.1,0.6-1.6
	c0.3-0.8,0.6-1.5,0.9-2.3c0.4-1.1,0.8-2.3,1.2-3.4c0.4-1.2,0.9-2.4,1.3-3.6c0.5-1.4,1-2.8,1.5-4.2c0.3-1,0.7-2,1-3
	c0.3-0.9,0.6-1.8,0.9-2.7c0.1-0.2,0.1-0.3,0.2-0.4c1.1-0.9,2-1.9,3-2.8c0.5-0.4,0.9-0.8,1.4-1.3c0.3-0.3,0.7-0.6,1-0.8
	c0.3-0.3,0.5-0.6,0.9-0.8c0.1,0,0.1-0.1,0.2-0.1c0.6-0.6,1.3-1.2,2-1.7c0.7-0.5,1.3-1.2,2-1.7c0.7-0.5,1.4-1.1,2.1-1.6
	c0.6-0.4,1.2-0.9,1.8-1.3c0.7-0.5,1.4-1,2.1-1.5c1.1-0.8,2.2-1.4,3.4-2.1c0.7-0.4,1.4-0.8,2.1-1.1c1.1-0.4,2.1-0.9,3.2-1.4
	c0.2-0.1,0.4-0.1,0.6,0.1c1.1,0.8,2.3,1.5,3.4,2.3c1.1,0.7,2.1,1.4,3.2,2.1C49.4,26.4,49.5,26.4,49.7,26.5z M41.6,58.2
	c0.6,0,0.9,0,1.3,0c0.3,0,0.7,0,1-0.1c0.3-0.1,0.7,0.1,1.1-0.2c0.6,0,1.1-0.2,1.7-0.3c0.9-0.1,1.8-0.5,2.7-0.6
	c1.1-0.5,2.3-0.7,3.4-1.2c0.2-0.1,0.5-0.1,0.7-0.3c0,0,0.2,0,0.2,0c0,0,0,0.1,0,0.2c0,0.1,0,0.1,0,0.2c-0.4,0.7-0.8,1.5-1.3,2.1
	c-0.7,0.8-1.4,1.5-2.3,2.1c-0.4,0.3-0.7,0.4-1.2,0.4c-1,0-2.1,0-3.1,0c-1,0-2,0.1-3-0.1c-1.4,0.1-2.9-0.1-4.3,0.1
	c-0.9,0.1-1.9-0.1-2.8,0.1c-0.4,0.1-0.9,0.1-1.3,0.1c-0.6,0.1-1.2,0.2-1.9,0.3c-0.6,0.1-1.1,0.2-1.7,0.3c-0.6,0.1-1.3,0.3-1.9,0.5
	c-1.2,0.4-2.3,0.8-3.4,1.4c-1.1,0.6-2.3,1.2-3.2,2.2c-0.2,0.2-0.3,0.4-0.5,0.6c-0.7,0.8-0.9,1.8-0.8,2.9c0.2,0.3,0.2,0.8,0.5,1.1
	c0.3,0.4,0.6,0.7,1,1c0.4,0.3,0.8,0.5,1.3,0.7c0.4,0.1,0.7,0.3,1.1,0.4c0.4,0.1,0.8,0.2,1.1,0.3c0.7,0.2,1.4,0.3,2.1,0.4
	c0.2,0.1,0.5-0.1,0.7,0.1c0.2-0.2,0.4-0.3,0.5-0.5c0,0,0,0,0,0c0.8-0.7,1.4-2.3,1.3-3.2c0-0.3-0.1-0.6-0.1-0.9
	c0-0.3-0.1-0.5-0.1-0.8c-0.3-1.2-0.5-2.3-1-3.5c0,0,0-0.1,0-0.2c0,0,0.1,0,0.2,0c0.6,0.3,1.1,0.6,1.6,1c0.9,0.8,1.2,1.9,1.4,3
	c0.1,0.7,0.1,1.4-0.1,2.1c-0.1,0.5-0.5,1.4-0.8,1.8c-0.3,0.4-0.7,0.9-1,1.3c-0.1,0.2-0.1,0.2,0.1,0.3c1,0.4,2.1,0.5,3.2,0.8
	c0.3,0.1,0.7,0.1,1,0.1c0.4,0,0.7,0.1,1.1,0.1c1.3,0.1,2.6,0,3.9-0.1c0.3-0.3,0.8,0,1.1-0.3c0.7-0.1,1.3-0.3,2-0.4
	c0.7-0.1,1.4-0.4,2-0.5c0.6-0.2,1.3-0.4,1.9-0.6c1.1-0.2,2.2-0.7,3.3-0.7c0.6-0.3,1.2-0.3,1.9-0.4c0.6-0.1,2.8,0,3.4,0.1
	c0.3,0.1,0.6,0,0.9,0.1c0.6,0.2,1.2,0.3,1.7,0.4c0.5,0.1,1.1,0.4,1.6,0.3c0.3,0.3,0.6,0.1,1,0.2c0.3,0.2,0.7,0.1,1.1,0.2
	c0.4,0.1,0.7,0.1,1.1,0.2c0.3,0.1,0.6,0.1,0.9,0.1c0.3,0,0.6,0.2,0.9,0.2c1.2-0.1,2.4,0.1,3.5-0.1c0.6-0.1,1.2-0.1,1.8-0.2
	c0,0,0.1,0,0.1,0c0.3-0.3,0.7,0,1-0.2c0.3-0.2,0.8-0.1,1.1-0.2c0.3-0.1,0.6,0,0.8-0.2c0.3-0.2,0.6,0,0.9-0.2
	c0.2-0.2,0.6-0.1,0.9-0.2c0.3-0.1,0.6-0.1,0.9-0.2c0.4-0.1,0.9-0.3,1.3-0.4c0.7-0.1,1.4-0.4,2.1-0.4c0.2,0,0.3-0.1,0.3-0.3
	c0.1-0.4,0.2-0.9,0.3-1.3c0.1-0.4,0.1-0.8,0.2-1.1c0.2-0.6,0.2-1.3,0.4-1.9c0.1-0.6,0.1-1.1,0.3-1.7c0.1-0.3,0-0.7,0.1-1
	c0.1-0.3,0.1-0.7,0.1-1.1c0.1-0.5,0-1,0.2-1.4c-0.1-1,0.1-2,0.2-3c0-0.5-0.2-0.9-0.2-1.4c0-0.5,0-1,0-1.5c0,0,0-0.1,0-0.1
	c-0.3-0.3-0.1-0.6-0.1-0.9c0-0.3-0.1-0.6-0.1-0.9c-0.1-0.4,0-0.9-0.2-1.3c-0.2-0.6-0.3-1.3-0.4-1.9c-0.1-0.6-0.4-1.1-0.3-1.7
	c-0.3-0.4-0.3-0.9-0.4-1.3c-0.1-0.4-0.4-0.9-0.3-1.4c-0.2-0.1-0.1-0.5-0.3-0.6c-0.2-0.1-0.4-0.1-0.6-0.1c-0.7,0-1.3,0-2-0.1
	c-0.4-0.1-0.8,0-1.2-0.1c-0.3-0.1-0.7,0-1-0.1c-0.3-0.1-0.7,0-1-0.2c-0.7,0-1.3-0.3-1.9-0.3c-0.2-0.2-0.5-0.1-0.7-0.2
	c-0.7-0.3-1.3-0.6-2-0.9c-1-0.5-2-0.9-2.8-1.4c-0.9-0.6-1.9-0.9-2.8-1.5c-0.5-0.3-1.1-0.6-1.7-0.9c-0.7-0.4-1.3-0.8-2-1.2
	c-0.6-0.4-1.2-0.7-1.7-1.1c-0.6-0.4-1.2-0.7-1.8-1.1c-0.2-0.1-0.4-0.1-0.5,0.1c-0.2,0.2-0.3,0.4-0.5,0.6c-0.5,0.6-1.1,1.1-1.6,1.7
	c-0.7,0.9-1.6,1.7-2.4,2.5c-0.8,0.8-1.6,1.7-2.3,2.5c-0.2,0.2-0.3,0.5-0.3,0.8c0,0.5,0,0.9,0,1.4c0,0.5,0,0.9-0.1,1.4
	c-0.1,0.4,0,0.9-0.1,1.3c-0.2,0.6-0.2,1.3-0.4,1.9c-0.3,1-0.7,2-1.3,3c-0.2,0.3-0.3,0.6-0.5,0.9c-0.7,1-1.5,1.9-2.4,2.7
	c-0.1,0.1-0.2,0.2-0.4,0.3c-0.2,0.2-0.4,0.4-0.6,0.5C42.1,57.7,41.9,57.9,41.6,58.2z M15.1,67.3c0.7,0,1.4-0.2,2-0.6
	c0.6-0.4,1.1-0.8,1.6-1.4c0.7-0.9,1.4-1.7,2-2.7c0.7-1.2,1.2-2.4,1.8-3.7c0.3-0.7,0.6-1.5,0.9-2.2c0.5-1,1-2.1,1.6-3.1
	c0.4-0.6,0.8-1.3,1.3-1.9c0.6-0.8,1.3-1.6,2-2.4c0.7-0.8,1.3-1.5,2-2.3c0.5-0.5,1-1,1.4-1.6c0.4-0.5,1-1,1.4-1.5
	c0.5-0.7,1.2-1.2,1.7-1.9c0.6-0.7,1.3-1.3,1.9-2.1c0.7-0.8,1.5-1.5,2.1-2.3c0.9-1,2-1.9,2.8-3c0.6-0.7,1.3-1.3,1.9-2
	c0.5-0.7,1.2-1.2,1.8-1.9c0.4-0.6,1-1,1.4-1.6c0.1-0.2,0.1-0.3,0-0.4c-0.6-0.4-1.2-0.8-1.7-1.3c-0.9-0.7-1.7-1.4-2.6-1.9
	c-0.4-0.2-0.7-0.5-1.2-0.4c-0.6,0.2-1.1,0.4-1.6,0.6c-1.2,0.5-2.3,1.3-3.4,2c-0.9,0.6-1.7,1.2-2.6,1.8c-0.9,0.7-1.8,1.3-2.7,2
	c-0.8,0.6-1.5,1.2-2.3,1.8c-0.7,0.6-1.4,1.1-2,1.7c-0.8,0.7-1.6,1.5-2.4,2.2c-1.2,1.2-2.6,2.4-3.6,3.7c-0.3,0.4-0.7,0.7-1,1
	c-0.4,0.4-0.6,0.8-0.9,1.3c-0.5,1.1-1,2.1-1.4,3.2c-0.4,1-0.8,2-1.2,3c-0.3,0.7-0.5,1.3-0.7,2c-0.3,1-0.7,2.1-1,3.1
	c-0.1,0.4-0.1,0.4,0.2,0.6c0.3,0.2,0.7,0.3,1,0.6c0.6,0.5,1.1,1,1.4,1.8c0.1,0.2,0.2,0.5,0.3,0.7c0.1,0.3,0.2,0.5,0.2,0.8
	c0,0.3-0.1,0.5-0.1,0.8c-0.1,0.8-0.4,1.6-0.7,2.3c-0.2,0.6-0.5,1.2-0.7,1.8c-0.4,1-1,1.9-1.4,2.8c0,0.1-0.1,0.2-0.1,0.3
	c0.1,0,0.2,0.1,0.3,0.1C14.9,67.3,15,67.3,15.1,67.3z M85.3,44c-0.9,0-1.8,0-2.7,0c-0.3,0-0.4,0.1-0.2,0.4c0.2,0.3-0.1,0.7,0.2,0.9
	c0,0,0,0.1,0,0.1c0,0.4,0,0.9,0.2,1.3c0.2,0.7,0.2,1.4,0.4,2c0.1,0.3,0,0.7,0.1,1c0.1,0.3,0,0.7,0.1,1c0.1,0.4,0,0.8,0.1,1.1
	c0.1,0.4,0.1,0.8,0.1,1.1c0.1,0.5-0.1,1.1,0.2,1.6c-0.1,1,0.1,2,0.1,3c0.1,1.4-0.2,2.7-0.1,4.1c-0.2,0.5-0.1,0.9-0.1,1.4
	c0,0,0,0.1,0,0.1c-0.3,0.2-0.1,0.5-0.1,0.8c-0.1,0.3-0.1,0.5-0.1,0.8c-0.1,0.4,0,0.9-0.2,1.3c-0.2,0.7-0.3,1.3-0.4,2
	c-0.1,0.3-0.1,0.6-0.1,0.9c-0.1,0.4-0.2,0.8-0.3,1.2c-0.1,0.4-0.2,0.8-0.3,1.1c-0.1,0.5-0.2,1.1-0.4,1.6c-0.2,0.8-0.4,1.6-0.6,2.4
	c-0.2,0.8-0.4,1.6-0.6,2.4c-0.1,0.3-0.1,0.3,0.2,0.3c0.3,0,0.6,0,0.9,0c0.3,0,0.6-0.1,0.9-0.1c0.9-0.1,1.8,0.1,2.7-0.1
	c0.5-0.1,1-0.1,1.5,0c0.5,0,1-0.2,1.5-0.1c1.3,0.1,2.6-0.2,3.9-0.1c0,0,0,0,0.1,0c0.2,0,0.3-0.1,0.3-0.3c0.1-0.5,0.3-1,0.4-1.4
	c0.2-0.9,0.6-1.7,0.6-2.6c0.3-0.5,0.3-1.1,0.4-1.6c0.1-0.5,0.2-1.1,0.3-1.6c0.1-0.4,0-0.7,0.1-1.1c0.3-0.8,0.2-1.6,0.4-2.4
	c0.1-0.4,0-0.9,0.1-1.4c0.1-0.4,0-0.8,0-1.2c0-0.4,0.1-0.8,0.1-1.2c0-1.4,0-2.8,0-4.1c0-0.4,0.1-0.8-0.1-1.3c-0.1-0.3,0-0.7,0-1
	c0-0.4-0.1-0.7-0.1-1.1c-0.1-0.6-0.1-1.2-0.1-1.8c0,0,0-0.1,0-0.1c-0.2-0.2-0.1-0.5-0.1-0.7c0-0.2-0.1-0.5-0.1-0.7
	c-0.1-0.4,0-0.8-0.2-1.1c-0.2-0.5-0.3-1-0.4-1.5c-0.1-0.7-0.3-1.4-0.5-2.1c-0.2-0.9-0.5-1.7-0.8-2.5c-0.1-0.2-0.2-0.3-0.4-0.3
	c-0.5,0-1,0-1.5,0c-0.5,0-1.1,0-1.6,0c-0.5,0-1-0.1-1.5-0.1C86.8,43.9,86,44,85.3,44z M5.4,82.4c0.2-0.1,0.3-0.1,0.4-0.1
	c1.2-0.4,2.4-0.9,3.5-1.4c1-0.5,2.1-1,3.1-1.6c0.4-0.2,0.4-0.4,0.3-0.9c-0.3-1-0.8-1.8-1.5-2.5c-0.7-0.8-1.5-1.4-2.2-2.1
	c-0.1-0.1-0.4-0.1-0.5,0c-0.5,0.6-0.9,1.2-1.4,1.8c-0.5,0.8-1.1,1.6-1.6,2.4c-0.3,0.4-0.5,0.9-0.7,1.3c-0.2,0.3-0.3,0.6-0.4,1
	c-0.1,0.2-0.2,0.4-0.2,0.7c0,0.2,0.2,0.3,0.3,0.5c0.2,0.3,0.3,0.5,0.5,0.8C5.1,82.2,5.3,82.3,5.4,82.4z M8.9,67.3
	c0.5,0.1,0.9,0,1.4,0.1c0.5,0.2,1.1-0.2,1.6-0.1c0.7-0.4,1.5-0.8,2-1.5c0.6-0.9,1.1-1.7,1.3-2.8c0.1-0.7,0.3-1.5,0.4-2.2
	c0-0.4,0-0.8,0-1.2c0-0.4-0.1-0.7-0.2-1.1c-0.1-0.4-0.3-0.8-0.5-1.1c-0.3-0.4-0.7-0.7-1-1.1c0,0-0.2,0-0.2,0c0,0.5-0.4,0.8-0.5,1.3
	c-0.3,0.9-0.8,1.8-1.1,2.7c-0.2,0.6-0.5,1.2-0.8,1.8c-0.4,0.9-0.8,1.8-1.2,2.7C9.6,65.6,9.3,66.4,8.9,67.3z M45.5,46.2
	c-0.4,0.5-0.8,1.1-1.3,1.6c-0.6,0.6-1.1,1.3-1.6,1.9c-0.6,0.7-1.3,1.5-1.9,2.2c-0.3,0.4-0.7,0.8-1.1,1.2c-0.7,0.8-1.5,1.6-2.2,2.5
	c-0.6,0.7-1.2,1.3-1.8,1.9c-0.2,0.2-0.2,0.2,0.1,0.4C35.9,58,36,58,36.2,58c0.5,0,1,0.1,1.5-0.1c0.4,0.1,0.8-0.1,1.2-0.2
	c1-0.3,2-0.9,2.8-1.6c0.4-0.4,0.8-0.8,1.2-1.3c0.7-0.9,1.2-1.9,1.7-2.8c0.1-0.3,0.3-0.6,0.3-0.9c0.1-0.7,0.4-1.3,0.5-2
	c0.1-0.5,0.3-1,0.2-1.5c0-0.1,0-0.2,0-0.3C45.7,47,45.6,46.6,45.5,46.2z"/>
</svg>
