<svg xmlns="http://www.w3.org/2000/svg" xmlns:xlink="http://www.w3.org/1999/xlink" version="1.1" x="0px" y="0px" viewBox="0 0 32 40" enable-background="new 0 0 32 32" xml:space="preserve"><g display="none"><rect x="-373.365" y="-186.672" display="inline" fill="#000000" width="473.333" height="236"/></g><g display="none"><g display="inline"><path d="M7,25h18V7H7V25z M8,8h16v16H8V8z"/><path d="M9.458,22.542h13.085V9.458H9.458V22.542z M10.458,10.458h11.085v11.085H10.458V10.458z"/><path d="M10.879,16L16,21.121L21.121,16L16,10.879L10.879,16z M16,19.707L12.293,16L16,12.293L19.707,16L16,19.707z"/><path d="M13.592,16L16,18.408L18.408,16L16,13.592L13.592,16z M16,16.994L15.006,16L16,15.006L16.994,16L16,16.994z"/><path d="M16,0C7.163,0,0,7.163,0,16s7.163,16,16,16s16-7.163,16-16S24.837,0,16,0z M16,31C7.729,31,1,24.271,1,16    C1,7.729,7.729,1,16,1c8.271,0,15,6.729,15,15C31,24.271,24.271,31,16,31z"/></g></g><g display="none"><g display="inline"><path d="M7,25h18V7H7V25z M9,9h14v14H9V9z"/><path d="M10.377,21.623h11.245V10.377H10.377V21.623z M12.377,12.377h7.245v7.245h-7.245V12.377z"/><rect x="14.13" y="14.13" transform="matrix(0.7071 -0.7071 0.7071 0.7071 -6.6274 16)" width="3.739" height="3.739"/><path d="M16,0C7.163,0,0,7.163,0,16s7.163,16,16,16s16-7.163,16-16S24.837,0,16,0z M16,30C8.28,30,2,23.72,2,16    C2,8.28,8.28,2,16,2c7.72,0,14,6.28,14,14C30,23.72,23.72,30,16,30z"/></g></g><g display="none"><g display="inline"><path d="M24,8H8v16h16V8z M22.006,22.006H9.994V9.994h12.012V22.006z"/><path d="M16,0C7.163,0,0,7.163,0,16s7.163,16,16,16s16-7.163,16-16S24.837,0,16,0z M25,25H7V7h18V25z"/><rect x="14.542" y="14.542" transform="matrix(0.7071 -0.7071 0.7071 0.7071 -6.6274 16)" width="2.915" height="2.915"/><path d="M21.006,10.994H10.994v10.012h10.012V10.994z M16,19.476L12.524,16L16,12.524L19.476,16L16,19.476z"/></g></g><g><g><path d="M7,25h18V7H7V25z M7.5,7.5h17v17h-17V7.5z"/><path d="M9.458,22.542h13.085V9.458H9.458V22.542z M9.958,9.958h12.085v12.085H9.958V9.958z"/><path d="M10.879,16L16,21.121L21.121,16L16,10.879L10.879,16z M16,20.414L11.586,16L16,11.586L20.414,16L16,20.414z"/><path d="M13.592,16L16,18.408L18.408,16L16,13.592L13.592,16z M16,17.701L14.299,16L16,14.299L17.701,16L16,17.701z"/><path d="M16,0C7.163,0,0,7.163,0,16s7.163,16,16,16s16-7.163,16-16S24.837,0,16,0z M16,31.5C7.453,31.5,0.5,24.547,0.5,16    C0.5,7.453,7.453,0.5,16,0.5c8.547,0,15.5,6.953,15.5,15.5C31.5,24.547,24.547,31.5,16,31.5z"/></g></g><text x="0" y="47" fill="#000000" font-size="5px" font-weight="bold" font-family="'Helvetica Neue', Helvetica, Arial-Unicode, Arial, Sans-serif">Created by Alfredo Hernandez</text><text x="0" y="52" fill="#000000" font-size="5px" font-weight="bold" font-family="'Helvetica Neue', Helvetica, Arial-Unicode, Arial, Sans-serif">from the Noun Project</text></svg>